<svg xmlns="http://www.w3.org/2000/svg" viewBox="0 0 103.52 23.89"><path fill="#231f20" d="M24.49 4.38h6.21V6.3h-3.93v5.16h3.71v1.92h-3.71V19h3.93v1.91h-6.21ZM33.47 4.38H37c3.33 0 3.68.89 3.68 4.5 0 2.22-.3 3.18-2.17 3.75 1.55.16 2.08 1 2.08 2.52v3.58a11.84 11.84 0 0 0 .13 2.1h-2.13a2.8 2.8 0 0 1-.28-1.48v-3.68c0-1.56-.27-2-1.78-2h-.78v7.17h-2.28Zm2.28 7.4h.6c1.8 0 2-.34 2-2.81s-.08-2.67-1.5-2.67h-1.1ZM43.79 4.38H50V6.3h-3.93v5.16h3.7v1.92h-3.7v7.49h-2.28ZM52.73 4.38H55v16.49h-2.27ZM58 8.58c0-2.3.75-4.34 3.86-4.34 2.26 0 3.31 1.14 3.31 3v1.64H63V7.74c0-1-.36-1.72-1.32-1.72-1.19 0-1.42.85-1.42 2.84v8.08c0 1.95.62 2.29 1.35 2.29s1.39-.59 1.39-2v-1.11h2.15V18c0 1.74-.71 3.06-3.36 3.06C58.91 21 58 19.48 58 16.92ZM67.94 4.38h2.28v16.49h-2.28ZM73.31 4.38h6.21V6.3H75.6v5.16h3.7v1.92h-3.7V19h3.92v1.91h-6.21ZM82.29 4.38h3.15l2.7 13.71V4.38h2.15v16.49H87L84.35 6.8v14.07h-2ZM93.1 4.38h7.76V6.3h-2.74v14.57h-2.28V6.3H93.1Z"/><path fill="#cb2027" d="M0 23.26V0h13.53c5.6 0 8.25 3.25 8.25 7.63 0 4.64-3 7.8-9.54 7.8H9.16v-.83h2.33c4.51 0 6.62-2.46 6.62-6.08 0-3.42-1.84-6-5.73-6H3v18.19h6.21v2.55Z"/><path fill="#231f20" d="M9.16 10.48v-3.8h.67c1.39 0 1.93.55 1.93 1.84s-.63 2-2.28 2ZM102.57 6.29a1 1 0 1 0-1-1 1 1 0 0 0 1 1Zm0-.17a.79.79 0 1 1 .78-.79.79.79 0 0 1-.78.79Zm-.06-.72a.25.25 0 0 1 .17 0s0 .14.06.24 0 .14 0 .2h.26a1.2 1.2 0 0 1-.06-.32c0-.13 0-.2-.2-.23a.26.26 0 0 0 .23-.26c0-.26-.21-.31-.42-.31h-.36v1.16h.18V5.4Zm-.14-.18v-.29h.21c.14 0 .18.05.18.13s0 .15-.21.16Z"/></svg>